<svg width="74" height="22" viewBox="0 0 74 22" fill="none" xmlns="http://www.w3.org/2000/svg">
<path d="M27.9314 18.7461V3.62173H33.9286C34.9509 3.62173 35.7876 3.82829 36.4388 4.24141C37.097 4.64753 37.5836 5.16918 37.8987 5.80636C38.2208 6.44354 38.3819 7.10173 38.3819 7.78093C38.3819 8.61417 38.1823 9.32137 37.7832 9.90254C37.3911 10.4837 36.8554 10.8758 36.1762 11.0789V10.5537C37.1285 10.7708 37.8497 11.2224 38.3399 11.9086C38.837 12.5948 39.0856 13.3755 39.0856 14.2508C39.0856 15.1471 38.914 15.9313 38.5709 16.6035C38.2278 17.2757 37.7167 17.8008 37.0375 18.1789C36.3653 18.557 35.5321 18.7461 34.5378 18.7461H27.9314ZM30.4941 16.3619H34.2227C34.6638 16.3619 35.0594 16.2744 35.4095 16.0993C35.7596 15.9173 36.0327 15.6652 36.2288 15.3431C36.4318 15.014 36.5333 14.6254 36.5333 14.1773C36.5333 13.7712 36.4458 13.4071 36.2708 13.085C36.0957 12.7629 35.8401 12.5073 35.504 12.3182C35.1679 12.1222 34.7653 12.0242 34.2962 12.0242H30.4941V16.3619ZM30.4941 9.66097H33.8971C34.2612 9.66097 34.5868 9.59095 34.8739 9.45091C35.1609 9.31087 35.3885 9.10431 35.5566 8.83123C35.7246 8.55815 35.8086 8.22206 35.8086 7.82294C35.8086 7.29779 35.6406 6.86016 35.3045 6.51006C34.9684 6.15996 34.4993 5.98491 33.8971 5.98491H30.4941V9.66097ZM44.3867 19.0717C43.5464 19.0717 42.8532 18.9316 42.3071 18.6516C41.7609 18.3715 41.3268 18.0144 41.0047 17.5803C40.6826 17.1461 40.4445 16.684 40.2905 16.1939C40.1364 15.7037 40.0349 15.2416 39.9859 14.8075C39.9439 14.3663 39.9229 14.0092 39.9229 13.7361V7.40282H42.4856V12.8644C42.4856 13.2145 42.5101 13.6101 42.5591 14.0512C42.6081 14.4854 42.7202 14.9055 42.8952 15.3116C43.0773 15.7107 43.3434 16.0398 43.6935 16.2989C44.0506 16.558 44.5302 16.6875 45.1324 16.6875C45.4545 16.6875 45.7731 16.635 46.0881 16.53C46.4032 16.4249 46.6868 16.2464 46.9389 15.9943C47.198 15.7352 47.4045 15.3816 47.5586 14.9335C47.7126 14.4854 47.7896 13.9182 47.7896 13.232L49.2916 13.8727C49.2916 14.839 49.1025 15.7142 48.7244 16.4984C48.3533 17.2827 47.8036 17.9094 47.0754 18.3785C46.3472 18.8406 45.451 19.0717 44.3867 19.0717ZM48.0942 18.7461V15.2276H47.7896V7.40282H50.3314V18.7461H48.0942ZM57.1578 19.0612C55.9885 19.0612 54.9907 18.8021 54.1645 18.284C53.3382 17.7588 52.7046 17.0446 52.2634 16.1413C51.8293 15.2381 51.6087 14.2158 51.6017 13.0745C51.6087 11.9121 51.8363 10.8828 52.2844 9.98657C52.7396 9.08331 53.3838 8.3761 54.217 7.86495C55.0502 7.34681 56.041 7.08773 57.1894 7.08773C58.4777 7.08773 59.5665 7.41332 60.4558 8.06451C61.3521 8.7087 61.9367 9.59095 62.2098 10.7113L59.6891 11.394C59.493 10.7848 59.1674 10.3122 58.7123 9.97606C58.2572 9.63296 57.739 9.46141 57.1578 9.46141C56.4997 9.46141 55.957 9.61896 55.5299 9.93405C55.1028 10.2421 54.7877 10.6693 54.5846 11.2154C54.3815 11.7616 54.28 12.3813 54.28 13.0745C54.28 14.1528 54.5216 15.0245 55.0047 15.6897C55.4879 16.3549 56.2056 16.6875 57.1578 16.6875C57.83 16.6875 58.3587 16.5335 58.7438 16.2254C59.1359 15.9173 59.43 15.4726 59.6261 14.8915L62.2098 15.4691C61.8597 16.6245 61.247 17.5137 60.3718 18.1369C59.4965 18.7531 58.4252 19.0612 57.1578 19.0612ZM63.2432 18.7461L63.2642 3.62173H65.8269V12.8644L69.9756 7.40282H73.1371L68.7363 13.0745L73.5152 18.7461H70.1647L65.8269 13.2845V18.7461H63.2432Z" fill="white"/>
<path d="M21.6519 11.2674C21.6519 20.6988 20.3902 21.9605 10.9588 21.9605C1.52735 21.9605 0.265625 20.6988 0.265625 11.2674C0.265625 1.83595 1.52735 0.574219 10.9588 0.574219C20.3902 0.574219 21.6519 1.83595 21.6519 11.2674Z" fill="#734DF2"/>
<path d="M7.12015 5.02344H11.8093C13.8358 5.02344 15.4785 6.66619 15.4785 8.69263C15.4785 9.55369 15.1819 10.3455 14.6853 10.9714C15.6816 11.6274 16.3392 12.756 16.3392 14.0381C16.3392 16.0645 14.6853 17.7073 12.67 17.7073H7.12015C6.80785 17.7073 6.55469 17.4541 6.55469 17.1418V12.9273C6.55469 12.615 6.80785 12.3618 7.12015 12.3618H11.8093C12.9747 12.3618 14.0132 11.8185 14.6853 10.9714C14.1069 10.5905 13.4143 10.3689 12.67 10.3689H7.12015C6.80785 10.3689 6.55469 10.1157 6.55469 9.80342V5.5889C6.55469 5.2766 6.80785 5.02344 7.12015 5.02344Z" fill="white"/>
</svg>
